HIERARCHY
ROOT hip
{
  OFFSET 0 0 0
  CHANNELS 6 Xposition Yposition Zposition Zrotation Yrotation Xrotation
  JOINT abdomen
  {
    OFFSET 0 20.6881 -0.73152
    CHANNELS 3 Zrotation Xrotation Yrotation
    JOINT chest
    {
      OFFSET 0 11.7043 -0.48768
      CHANNELS 3 Zrotation Xrotation Yrotation
      JOINT neck
      {
        OFFSET 0 22.1894 -2.19456
        CHANNELS 3 Zrotation Xrotation Yrotation
        JOINT head
        {
          OFFSET -0.24384 7.07133 1.2192
          CHANNELS 3 Zrotation Xrotation Yrotation
          JOINT leftEye
          {
            OFFSET 4.14528 8.04674 8.04672
            CHANNELS 3 Zrotation Xrotation Yrotation
            End Site
            {
              OFFSET 1 0 0
            }
          }
          JOINT rightEye
          {
            OFFSET -3.6576 8.04674 8.04672
            CHANNELS 3 Zrotation Xrotation Yrotation
            End Site
            {
              OFFSET 1 0 0
            }
          }
        }
      }
      JOINT rCollar
      {
        OFFSET -2.68224 19.2634 -4.8768
        CHANNELS 3 Zrotation Xrotation Yrotation
        JOINT rShldr
        {
          OFFSET -8.77824 -1.95073 1.46304
          CHANNELS 3 Zrotation Xrotation Yrotation
          JOINT rForeArm
          {
            OFFSET -28.1742 -1.7115 0.48768
            CHANNELS 3 Zrotation Xrotation Yrotation
            JOINT rHand
            {
              OFFSET -22.5879 0.773209 7.07136
              CHANNELS 3 Zrotation Xrotation Yrotation
              JOINT rThumb1
              {
                OFFSET -1.2192 -0.487915 3.41376
                CHANNELS 3 Zrotation Xrotation Yrotation
                JOINT rThumb2
                {
                  OFFSET -3.37035 -0.52449 3.41376
                  CHANNELS 3 Zrotation Xrotation Yrotation
                  End Site
                  {
                    OFFSET -1.78271 -1.18214 1.43049
                  }
                }
              }
              JOINT rIndex1
              {
                OFFSET -7.75947 0.938293 5.60832
                CHANNELS 3 Zrotation Xrotation Yrotation
                JOINT rIndex2
                {
                  OFFSET -2.54057 -0.884171 1.56538
                  CHANNELS 3 Zrotation Xrotation Yrotation
                  End Site
                  {
                    OFFSET -1.62519 -0.234802 1.16502
                  }
                }
              }
              JOINT rMid1
              {
                OFFSET -8.24714 1.18213 3.41376
                CHANNELS 3 Zrotation Xrotation Yrotation
                JOINT rMid2
                {
                  OFFSET -3.10165 -0.590103 1.0647
                  CHANNELS 3 Zrotation Xrotation Yrotation
                  End Site
                  {
                    OFFSET -2.48547 -0.328903 0.83742
                  }
                }
              }
              JOINT rRing1
              {
                OFFSET -8.82822 0.546677 1.51678
                CHANNELS 3 Zrotation Xrotation Yrotation
                JOINT rRing2
                {
                  OFFSET -2.60934 -0.819778 -0.0198488
                  CHANNELS 3 Zrotation Xrotation Yrotation
                  End Site
                  {
                    OFFSET -2.33842 -0.294052 0.168128
                  }
                }
              }
              JOINT rPinky1
              {
                OFFSET -8.27202 -0.0477905 -0.4584
                CHANNELS 3 Zrotation Xrotation Yrotation
                JOINT rPinky2
                {
                  OFFSET -1.82734 -0.647385 -0.700984
                  CHANNELS 3 Zrotation Xrotation Yrotation
                  End Site
                  {
                    OFFSET -1.69225 -0.51767 -0.607171
                  }
                }
              }
            }
          }
        }
      }
      JOINT lCollar
      {
        OFFSET 2.68224 19.2634 -4.8768
        CHANNELS 3 Zrotation Xrotation Yrotation
        JOINT lShldr
        {
          OFFSET 8.77824 -1.95073 1.46304
          CHANNELS 3 Zrotation Xrotation Yrotation
          JOINT lForeArm
          {
            OFFSET 28.1742 -1.7115 0.48768
            CHANNELS 3 Zrotation Xrotation Yrotation
            JOINT lHand
            {
              OFFSET 22.5879 0.773209 7.07136
              CHANNELS 3 Zrotation Xrotation Yrotation
              JOINT lThumb1
              {
                OFFSET 1.2192 -0.487915 3.41376
                CHANNELS 3 Zrotation Xrotation Yrotation
                JOINT lThumb2
                {
                  OFFSET 3.37035 -0.52449 3.41376
                  CHANNELS 3 Zrotation Xrotation Yrotation
                  End Site
                  {
                    OFFSET 1.78271 -1.18214 1.43049
                  }
                }
              }
              JOINT lIndex1
              {
                OFFSET 7.75947 0.938293 5.60832
                CHANNELS 3 Zrotation Xrotation Yrotation
                JOINT lIndex2
                {
                  OFFSET 2.54057 -0.884171 1.56538
                  CHANNELS 3 Zrotation Xrotation Yrotation
                  End Site
                  {
                    OFFSET 1.62519 -0.234802 1.16502
                  }
                }
              }
              JOINT lMid1
              {
                OFFSET 8.24714 1.18213 3.41376
                CHANNELS 3 Zrotation Xrotation Yrotation
                JOINT lMid2
                {
                  OFFSET 3.10165 -0.590103 1.0647
                  CHANNELS 3 Zrotation Xrotation Yrotation
                  End Site
                  {
                    OFFSET 2.48547 -0.328903 0.83742
                  }
                }
              }
              JOINT lRing1
              {
                OFFSET 8.82822 0.546677 1.51678
                CHANNELS 3 Zrotation Xrotation Yrotation
                JOINT lRing2
                {
                  OFFSET 2.60934 -0.819778 -0.0198488
                  CHANNELS 3 Zrotation Xrotation Yrotation
                  End Site
                  {
                    OFFSET 2.33842 -0.294052 0.168128
                  }
                }
              }
              JOINT lPinky1
              {
                OFFSET 8.27202 -0.0477905 -0.4584
                CHANNELS 3 Zrotation Xrotation Yrotation
                JOINT lPinky2
                {
                  OFFSET 1.82734 -0.647385 -0.700984
                  CHANNELS 3 Zrotation Xrotation Yrotation
                  End Site
                  {
                    OFFSET 1.69225 -0.51767 -0.607171
                  }
                }
              }
            }
          }
        }
      }
    }
  }
  JOINT rButtock
  {
    OFFSET -8.77824 4.35084 1.2192
    CHANNELS 3 Zrotation Xrotation Yrotation
    JOINT rThigh
    {
      OFFSET 0 -1.70687 -2.19456
      CHANNELS 3 Zrotation Xrotation Yrotation
      JOINT rShin
      {
        OFFSET 0 -36.8199 0.73152
        CHANNELS 3 Zrotation Xrotation Yrotation
        JOINT rFoot
        {
          OFFSET 0.73152 -45.1104 -5.12064
          CHANNELS 3 Zrotation Xrotation Yrotation
          End Site
          {
            OFFSET -1.1221 -3.69964 12.103
          }
        }
      }
    }
  }
  JOINT lButtock
  {
    OFFSET 8.77824 4.35084 1.2192
    CHANNELS 3 Zrotation Xrotation Yrotation
    JOINT lThigh
    {
      OFFSET 0 -1.70687 -2.19456
      CHANNELS 3 Zrotation Xrotation Yrotation
      JOINT lShin
      {
        OFFSET 0 -36.8199 0.73152
        CHANNELS 3 Zrotation Xrotation Yrotation
        JOINT lFoot
        {
          OFFSET -0.73152 -45.1104 -5.12064
          CHANNELS 3 Zrotation Xrotation Yrotation
          End Site
          {
            OFFSET 1.1221 -3.69964 12.103
          }
        }
      }
    }
  }
}
MOTION
Frames:	8
Frame Time:	0.00833333
81.1053 85.0159 119.451 0.0 0.0 0.0 0.0404823 0.000270403 0.00114434 0.0111571 0.000489937 0.00193268 2.40293e-16 0.0 5.43552e-18 7.14382e-16 3.18055e-15 1.3977e-17 -0.0 0.0 0.0 -0.0 0.0 0.0 1.4776e-16 -1.16475e-18 1.49089e-16 4.34356e-15 1.2424e-16 9.93923e-16 3.98563e-14 -1.43125e-14 3.18055e-14 4.94154e-13 5.2181e-15 -2.54444e-14 1.15731e-12 -2.07056e-14 2.8625e-14 1.99222e-12 -3.81667e-14 4.85035e-14 1.16289e-12 -2.0276e-14 1.59028e-14 7.73091 5.47488 0.417314 1.15638e-12 -2.10712e-14 3.18055e-14 2.90554 0.965183 0.102902 1.16241e-12 -2.09718e-14 2.70347e-14 10.2786 0.731801 0.0259123 1.15653e-12 -1.94809e-14 3.49861e-14 2.22167 -0.733487 -0.20892 5.10331e-17 -1.55301e-18 -1.49089e-16 4.28921e-16 1.36664e-16 -9.93923e-16 4.14963e-14 1.31198e-14 -6.36111e-15 4.89886e-13 -1.41137e-14 2.54444e-14 1.15624e-12 -3.80431e-15 2.22639e-14 2.00892e-12 -6.36111e-15 4.53229e-14 1.15136e-12 -1.98785e-15 3.49861e-14 -7.73091 5.47488 -0.417314 1.15772e-12 -3.97569e-15 2.22639e-14 -2.90554 0.965183 -0.102902 1.14601e-12 -3.37934e-15 2.54444e-14 -10.2786 0.731801 -0.0259123 1.15991e-12 -3.57812e-15 1.59028e-14 -2.22167 -0.733487 0.20892 -2.03217e-16 0.0 -3.88251e-19 0.554639 -3.16496 -0.043685 -0.00574519 0.179608 -0.0505576 -0.523877 2.98421 0.121168 2.03217e-16 0.0 3.88251e-19 -0.493036 -3.01454 0.0399654 0.00619331 -0.0928792 0.0545629 0.523459 3.10627 -0.123626
81.1553 82.8944 112.534 -179.137 -10.8277 -174.06 -1.07803 4.36251 1.40982 -0.462965 -0.00733255 0.248607 -1.57434 4.17998 -2.05835 2.46189 -1.07767 -4.79471 -0.0 0.0 0.0 -0.0 0.0 0.0 1.95005e-14 7.92973e-15 -4.85318e-14 15.4444 0.719851 3.7127 -8.65417 -5.53825 11.3257 0.000662592 0.688529 0.0967483 4.84654e-10 -1.82821e-09 -1.93225e-10 8.37901e-10 -3.15948e-09 -3.3903e-10 4.84658e-10 -1.8282e-09 -1.93236e-10 7.73091 5.47488 0.417314 4.84652e-10 -1.8282e-09 -1.93224e-10 2.90554 0.965183 0.102902 4.8466e-10 -1.8282e-09 -1.93229e-10 10.2786 0.731801 0.0259123 4.84653e-10 -1.8282e-09 -1.93224e-10 2.22167 -0.733487 -0.20892 1.94083e-14 7.92116e-15 -4.87721e-14 -19.3731 9.78047 -1.60661 9.21075 -6.07535 -11.7532 -0.0101522 2.23534 -0.313293 -1.13633e-10 -1.05708e-10 1.84688e-10 -1.95369e-10 -1.80935e-10 3.19828e-10 -1.13638e-10 -1.05707e-10 1.84701e-10 -7.73091 5.47488 -0.417314 -1.13631e-10 -1.05709e-10 1.8469e-10 -2.90554 0.965183 -0.102902 -1.1364e-10 -1.05708e-10 1.84691e-10 -10.2786 0.731801 -0.0259123 -1.13628e-10 -1.05708e-10 1.84683e-10 -2.22167 -0.733487 0.20892 -2.03217e-16 0.0 -3.88251e-19 0.763338 -9.41015 2.74503 0.031656 10.4861 0.135099 -0.720828 -1.3164 -2.45256 2.03217e-16 0.0 3.88251e-19 1.00852 -13.0863 1.46353 -0.0113109 13.2456 -0.139209 0.527287 0.455343 0.47223
81.0666 82.8299 112.063 -178.933 -10.5394 -173.848 -2.48946 8.94478 2.93388 -0.952345 -0.0169588 0.513201 -2.89817 8.58941 -4.27406 4.85687 -2.18486 -9.88044 -0.0 0.0 0.0 -0.0 0.0 0.0 4.18325e-14 1.69048e-14 -1.03676e-13 31.7196 1.50309 7.57438 -15.4456 -10.6595 23.6124 -0.00140307 1.46076 0.205311 1.01267e-09 -3.83981e-09 -4.12478e-10 1.75078e-09 -6.63594e-09 -7.2367e-10 1.01267e-09 -3.8398e-09 -4.12488e-10 7.73091 5.47488 0.417314 1.01267e-09 -3.83981e-09 -4.12481e-10 2.90554 0.965183 0.102902 1.01267e-09 -3.8398e-09 -4.12486e-10 10.2786 0.731801 0.0259123 1.01267e-09 -3.8398e-09 -4.12485e-10 2.22167 -0.733487 -0.20892 4.17469e-14 1.6887e-14 -1.03853e-13 -39.2317 20.1252 -3.46549 16.2625 -11.6304 -24.5691 0.00577078 4.59684 -0.645888 -2.44188e-10 -2.25607e-10 3.82625e-10 -4.19912e-10 -3.86247e-10 6.62615e-10 -2.44194e-10 -2.25607e-10 3.82638e-10 -7.73091 5.47488 -0.417314 -2.44185e-10 -2.25607e-10 3.82629e-10 -2.90554 0.965183 -0.102902 -2.44192e-10 -2.25607e-10 3.82628e-10 -10.2786 0.731801 -0.0259123 -2.44182e-10 -2.25607e-10 3.82621e-10 -2.22167 -0.733487 0.20892 -2.03217e-16 0.0 -3.88251e-19 1.66763 -15.9716 5.83436 -0.00580441 21.3976 0.35135 -1.35002 -5.83222 -5.20128 2.03217e-16 0.0 3.88251e-19 3.17753 -23.6977 3.18649 0.0795182 27.4808 -0.381422 0.587552 -2.39318 1.06281
80.9218 82.8315 111.608 -178.937 -10.126 -173.662 -3.97243 13.0549 4.32696 -1.41101 -0.0229758 0.741956 -3.80545 12.4744 -6.30812 6.85019 -3.14258 -14.4037 -0.0 0.0 0.0 -0.0 0.0 0.0 5.82058e-14 2.37915e-14 -1.45894e-13 46.0551 2.12332 11.145 -19.6622 -14.0113 35.0015 -0.00499186 2.06556 0.290413 1.45165e-09 -5.48458e-09 -5.79731e-10 2.50972e-09 -9.47836e-09 -1.01719e-09 1.45165e-09 -5.48457e-09 -5.79739e-10 7.73091 5.47488 0.417314 1.45164e-09 -5.48457e-09 -5.79736e-10 2.90554 0.965183 0.102902 1.45165e-09 -5.48457e-09 -5.79741e-10 10.2786 0.731801 0.0259123 1.45165e-09 -5.48457e-09 -5.79742e-10 2.22167 -0.733487 -0.20892 5.81229e-14 2.37666e-14 -1.46018e-13 -56.2722 29.2421 -5.4454 20.4673 -15.1454 -36.5188 0.0433067 6.70521 -0.945632 -3.43211e-10 -3.17118e-10 5.5402e-10 -5.90124e-10 -5.42793e-10 9.59394e-10 -3.43218e-10 -3.17118e-10 5.54032e-10 -7.73091 5.47488 -0.417314 -3.43209e-10 -3.17118e-10 5.54026e-10 -2.90554 0.965183 -0.102902 -3.43213e-10 -3.17117e-10 5.54023e-10 -10.2786 0.731801 -0.0259123 -3.43204e-10 -3.17117e-10 5.54017e-10 -2.22167 -0.733487 0.20892 -2.03217e-16 0.0 -3.88251e-19 3.1199 -21.6961 8.84233 -0.120851 31.098 0.583504 -2.28301 -9.83329 -7.71173 2.03217e-16 0.0 3.88251e-19 5.76762 -33.1415 5.014 0.289644 39.9207 -0.672349 0.700629 -4.84443 1.6695
80.7864 82.9239 111.145 -178.839 -9.7725 -173.574 -5.16496 16.0156 5.29868 -1.79307 -0.0199722 0.881116 -4.33035 15.1115 -7.7597 8.21131 -3.8124 -17.5027 -0.0 0.0 0.0 -0.0 0.0 0.0 5.96826e-14 2.54576e-14 -1.55797e-13 55.7509 2.37164 13.9802 -21.7703 -15.4162 43.1732 -0.00622318 2.25186 0.316643 1.66804e-09 -6.21226e-09 -6.1698e-10 2.88381e-09 -1.07357e-08 -1.08289e-09 1.66804e-09 -6.21225e-09 -6.16986e-10 7.73091 5.47488 0.417314 1.66804e-09 -6.21225e-09 -6.16986e-10 2.90554 0.965183 0.102902 1.66805e-09 -6.21225e-09 -6.16991e-10 10.2786 0.731801 0.0259123 1.66804e-09 -6.21225e-09 -6.16993e-10 2.22167 -0.733487 -0.20892 5.95922e-14 2.54305e-14 -1.55897e-13 -67.6416 35.383 -7.13241 22.4793 -16.4942 -45.1054 0.0828072 8.18154 -1.1578 -3.63405e-10 -3.37657e-10 6.59059e-10 -6.24504e-10 -5.77423e-10 1.14115e-09 -3.63413e-10 -3.37658e-10 6.59071e-10 -7.73091 5.47488 -0.417314 -3.63404e-10 -3.37658e-10 6.59065e-10 -2.90554 0.965183 -0.102902 -3.63407e-10 -3.37657e-10 6.59061e-10 -10.2786 0.731801 -0.0259123 -3.63398e-10 -3.37656e-10 6.59055e-10 -2.22167 -0.733487 0.20892 -2.03217e-16 0.0 -3.88251e-19 4.53404 -25.5158 11.1729 -0.259948 37.7716 0.781476 -3.15012 -12.6326 -9.50619 2.03217e-16 0.0 3.88251e-19 8.04132 -39.7549 6.43614 0.528065 47.8741 -0.937542 0.840487 -6.30414 2.30914
80.6256 83.0196 110.696 -178.821 -9.6163 -173.392 -5.7055 17.3994 5.60118 -2.10812 -0.0123885 0.892177 -4.63065 16.0308 -8.29785 8.88271 -4.11887 -18.5834 -0.0 0.0 0.0 -0.0 0.0 0.0 3.86699e-14 1.95904e-14 -1.17104e-13 59.0683 2.15056 15.7946 -22.4832 -15.7674 46.501 -0.0031846 1.84757 0.259716 1.54127e-09 -5.51223e-09 -4.37842e-10 2.66456e-09 -9.52528e-09 -7.69718e-10 1.54127e-09 -5.51223e-09 -4.37847e-10 7.73091 5.47488 0.417314 1.54127e-09 -5.51222e-09 -4.37848e-10 2.90554 0.965183 0.102902 1.54128e-09 -5.51222e-09 -4.3785e-10 10.2786 0.731801 0.0259123 1.54127e-09 -5.51222e-09 -4.3785e-10 2.22167 -0.733487 -0.20892 3.85466e-14 1.95694e-14 -1.17224e-13 -71.8649 37.4159 -7.88029 23.1427 -16.7774 -48.5858 0.102314 8.80204 -1.24762 -2.33486e-10 -2.02307e-10 6.64477e-10 -4.00009e-10 -3.4374e-10 1.15005e-09 -2.33496e-10 -2.0231e-10 6.6449e-10 -7.73091 5.47488 -0.417314 -2.33487e-10 -2.02309e-10 6.64481e-10 -2.90554 0.965183 -0.102902 -2.3349e-10 -2.02309e-10 6.64477e-10 -10.2786 0.731801 -0.0259123 -2.33478e-10 -2.02304e-10 6.64471e-10 -2.22167 -0.733487 0.20892 -2.03217e-16 0.0 -3.88251e-19 5.20615 -26.7959 12.2319 -0.328296 40.1958 0.864232 -3.54642 -13.8077 -10.2036 2.03217e-16 0.0 3.88251e-19 9.04411 -42.4976 6.75004 0.60192 49.5544 -1.00755 0.960943 -6.35587 2.97993
80.4662 83.1194 110.268 -178.81 -9.4843 -173.198 -5.72659 17.6628 5.40474 -2.37336 -0.00114944 0.811864 -4.83993 15.7365 -8.15864 9.09826 -4.18414 -18.2197 -0.0 0.0 0.0 -0.0 0.0 0.0 1.67108e-15 8.35301e-15 -4.38569e-14 57.8581 1.60316 16.879 -22.4764 -15.8385 46.3375 0.000358 1.02166 0.143538 1.17089e-09 -3.79925e-09 -1.05779e-10 2.02408e-09 -6.56408e-09 -1.88779e-10 1.17089e-09 -3.79926e-09 -1.05783e-10 7.73091 5.47488 0.417314 1.17088e-09 -3.79925e-09 -1.05784e-10 2.90554 0.965183 0.102902 1.17089e-09 -3.79925e-09 -1.05782e-10 10.2786 0.731801 0.0259123 1.17088e-09 -3.79925e-09 -1.05777e-10 2.22167 -0.733487 -0.20892 1.49721e-15 8.34413e-15 -4.40308e-14 -71.2166 36.542 -7.78984 23.1353 -16.8548 -48.3992 0.101902 8.81005 -1.24872 1.76581e-12 4.16999e-11 5.99058e-10 6.12457e-12 7.69462e-11 1.03604e-09 1.75238e-12 4.16952e-11 5.99071e-10 -7.73091 5.47488 -0.417314 1.76034e-12 4.16954e-11 5.99057e-10 -2.90554 0.965183 -0.102902 1.75697e-12 4.16963e-11 5.99054e-10 -10.2786 0.731801 -0.0259123 1.77364e-12 4.17049e-11 5.99047e-10 -2.22167 -0.733487 0.20892 -2.03217e-16 0.0 -3.88251e-19 5.16805 -26.3058 12.2844 -0.315557 39.5856 0.841441 -3.51425 -13.8425 -10.0871 2.03217e-16 0.0 3.88251e-19 8.91036 -42.4911 6.08682 0.511501 46.7542 -0.897816 1.0327 -5.40417 3.66958
80.3592 83.1709 109.838 -178.516 -9.2062 -173.074 -5.57954 17.4612 5.02548 -2.55432 0.0244288 0.699269 -4.99779 14.9811 -7.76146 9.07819 -4.18471 -17.2977 -0.0 0.0 0.0 -0.0 0.0 0.0 -3.91073e-14 -4.67348e-15 3.78382e-14 54.8175 0.889716 17.6524 -22.1857 -15.8028 44.7547 0.000962121 0.0345401 0.00481142 7.53525e-10 -1.91116e-09 2.32442e-10 1.30242e-09 -3.30024e-09 4.03373e-10 7.53529e-10 -1.91118e-09 2.32439e-10 7.73091 5.47488 0.417314 7.53521e-10 -1.91116e-09 2.32438e-10 2.90554 0.965183 0.102902 7.5353e-10 -1.91116e-09 2.32445e-10 10.2786 0.731801 0.0259123 7.53524e-10 -1.91116e-09 2.32454e-10 2.22167 -0.733487 -0.20892 -3.93205e-14 -4.67027e-15 3.76107e-14 -68.6369 34.5376 -7.39808 22.8719 -16.8688 -46.7452 0.0921989 8.52745 -1.2077 2.15544e-10 2.38723e-10 5.16061e-10 3.74975e-10 4.16222e-10 8.91793e-10 2.15527e-10 2.38716e-10 5.16073e-10 -7.73091 5.47488 -0.417314 2.15534e-10 2.38716e-10 5.16054e-10 -2.90554 0.965183 -0.102902 2.1553e-10 2.38717e-10 5.16053e-10 -10.2786 0.731801 -0.0259123 2.15551e-10 2.38729e-10 5.16044e-10 -2.22167 -0.733487 0.20892 -2.03217e-16 0.0 -3.88251e-19 4.82365 -25.1268 11.9198 -0.273079 37.7828 0.777263 -3.30952 -13.4312 -9.64183 2.03217e-16 0.0 3.88251e-19 8.33645 -41.3443 4.99783 0.384981 42.1519 -0.741046 1.05708 -4.08651 4.37757
